#!OML:ASF X:\für Bonn\!DataBase\2005_08_10_Bjorn_Final\c3d\bjorn.ASF
:FULLY-SPECIFIED
:DEGREES
139
root -4.28583 19.3685 -1.39865 669.185 83.9173 -50.312
lowerback 0.574379 1.34144 -3.95306
upperback 10.3899 2.54432 -1.11723
thorax 10.6362 1.12056 1.2549
lowerneck 5.2303 -1.90511 -2.65532
upperneck 18.9079 -2.20694 2.36631
head 4.88932 -0.867874 1.14708
rclavicle -5.56597e-015 -1.74931e-014
rhumerus -30.2179 -19.6818 -79.5305
rradius 34.2733
rwrist 5.17619
rhand -10.3135 16.0141
rfingers 7.12502
rthumb 15.6817 -13.3704
lclavicle -5.56597e-015 -1.74931e-014
lhumerus -16.764 1.30973 53.7856
lradius 48.2125
lwrist -14.6432
lhand -34.2093 -14.4615
lfingers 7.12502
lthumb -7.38161 15.3897
rfemur -25.6637 -7.00247 13.0085
rtibia 81.6365
rfoot 6.63848 18.0477
rtoes -13.5993
lfemur -15.4734 5.25769 -12.5804
ltibia 30.7902
lfoot -7.75628 -7.20548
ltoes -5.48188
140
root -4.22517 19.3728 -1.40609 666.7 83.9336 -52.4591
lowerback 0.677556 1.35949 -4.01262
upperback 10.4658 2.58555 -1.18556
thorax 10.6616 1.14233 1.21657
lowerneck 5.16186 -1.95726 -2.79282
upperneck 19.0543 -2.32609 2.73677
head 4.95388 -0.912878 1.28258
rclavicle 2.10712e-014 1.11319e-014
rhumerus -30.2687 -19.6793 -79.6173
rradius 34.1625
rwrist 5.30958
rhand -10.2602 16.026
rfingers 7.12502
rthumb 15.733 -13.3545
lclavicle 2.10712e-014 1.11319e-014
lhumerus -16.2215 1.71297 53.7975
lradius 48.3479
lwrist -14.5854
lhand -34.2116 -14.3157
lfingers 7.12502
lthumb -7.38383 15.5354
rfemur -26.6473 -7.66246 13.0639
rtibia 83.2053
rfoot 6.11147 18.6863
rtoes -13.8122
lfemur -14.8181 5.04437 -12.4507
ltibia 30.62
lfoot -7.91445 -7.16641
ltoes -5.34475
141
root -4.16631 19.3751 -1.41328 664.32 83.9595 -54.5005
lowerback 0.810219 1.37647 -4.08891
upperback 10.5266 2.62357 -1.25827
thorax 10.6518 1.16202 1.18116
lowerneck 5.07206 -2.00969 -2.97358
upperneck 19.2303 -2.44943 3.13385
head 5.03266 -0.960364 1.43369
rclavicle -2.78299e-015 -2.22639e-014
rhumerus -30.3318 -19.7084 -79.6712
rradius 34.0065
rwrist 5.50778
rhand -10.2201 16.0877
rfingers 7.12502
rthumb 15.7717 -13.2897
lclavicle -2.78299e-015 -2.22639e-014
lhumerus -15.7104 2.10732 53.8453
lradius 48.4894
lwrist -14.5155
lhand -34.2154 -14.1487
lfingers 7.12502
lthumb -7.38751 15.7023
rfemur -27.6339 -8.3143 13.0903
rtibia 84.7354
rfoot 5.57056 19.3537
rtoes -14.0919
lfemur -14.1822 4.8283 -12.3466
ltibia 30.4694
lfoot -8.07195 -7.12819
ltoes -5.17855
142
root -4.10864 19.3778 -1.41921 661.735 83.9894 -56.7275
lowerback 0.980731 1.39051 -4.15476
upperback 10.59 2.65775 -1.35035
thorax 10.6238 1.18291 1.11762
lowerneck 4.90977 -2.06256 -3.0163
upperneck 19.4526 -2.55825 3.43131
head 5.13511 -0.995219 1.53059
rclavicle -8.34896e-015 -9.54166e-015
rhumerus -30.4039 -19.6857 -79.7802
rradius 33.8857
rwrist 5.599
rhand -10.2392 16.0775
rfingers 7.12502
rthumb 15.7533 -13.3014
lclavicle -8.34896e-015 -9.54166e-015
lhumerus -15.1995 2.41956 53.8872
lradius 48.6314
lwrist -14.4096
lhand -34.3398 -13.9642
lfingers 7.12502
lthumb -7.50759 15.8825
rfemur -28.5936 -8.97619 13.1257
rtibia 86.2092
rfoot 4.97762 19.9515
rtoes -14.4794
lfemur -13.5425 4.63785 -12.242
ltibia 30.3381
lfoot -8.23912 -7.11442
ltoes -5.09646
143
root -4.05196 19.379 -1.42496 658.94 83.9502 -59.1832
lowerback 1.14215 1.40748 -4.15343
upperback 10.6233 2.68682 -1.42304
thorax 10.5678 1.20599 1.03676
lowerneck 4.85826 -2.12779 -3.05132
upperneck 19.6521 -2.68079 3.70963
head 5.21308 -1.03672 1.62087
rclavicle 5.56597e-015 7.95139e-015
rhumerus -30.5346 -19.6989 -79.8514
rradius 33.7688
rwrist 5.72349
rhand -10.1992 16.129
rfingers 7.12502
rthumb 15.7918 -13.2469
lclavicle 5.56597e-015 7.95139e-015
lhumerus -14.7357 2.63466 53.946
lradius 48.7819
lwrist -14.2523
lhand -34.5719 -13.7296
lfingers 7.12502
lthumb -7.73158 16.109
rfemur -29.58 -9.61708 13.2363
rtibia 87.6267
rfoot 4.353 20.42
rtoes -14.9967
lfemur -12.9322 4.41775 -12.0713
ltibia 30.2239
lfoot -8.41551 -7.09207
ltoes -5.00735
144
root -3.99647 19.3787 -1.4303 655.899 83.8897 -61.8427
lowerback 1.37506 1.42642 -4.10685
upperback 10.6636 2.71516 -1.50563
thorax 10.479 1.23496 0.917834
lowerneck 4.78354 -2.19336 -3.07837
upperneck 19.8604 -2.81131 4.03184
head 5.29867 -1.07822 1.72338
rclavicle -1.07344e-014 -3.18055e-015
rhumerus -30.684 -19.7242 -79.9423
rradius 33.6591
rwrist 5.84255
rhand -10.2217 16.1048
rfingers 7.12502
rthumb 15.7702 -13.2728
lclavicle -1.07344e-014 -3.18055e-015
lhumerus -14.2613 2.79012 54.0142
lradius 48.9117
lwrist -14.1074
lhand -34.8348 -13.4968
lfingers 7.12502
lthumb -7.98537 16.3324
rfemur -30.4964 -10.2626 13.3643
rtibia 88.9641
rfoot 3.73052 20.8125
rtoes -15.534
lfemur -12.2903 4.19617 -11.8734
ltibia 30.1273
lfoot -8.57518 -7.07128
ltoes -4.90324
145
root -3.94112 19.3794 -1.435 652.926 83.8161 -64.4339
lowerback 1.58732 1.44758 -4.05983
upperback 10.7326 2.75214 -1.5941
thorax 10.4361 1.26827 0.79425
lowerneck 4.6507 -2.26193 -3.03309
upperneck 20.0608 -2.94292 4.31682
head 5.39046 -1.11682 1.8014
rclavicle 1.43125e-014 7.31528e-014
rhumerus -30.7417 -19.7727 -80.0596
rradius 33.4933
rwrist 5.99155
rhand -10.274 16.1405
rfingers 7.12502
rthumb 15.7198 -13.2411
lclavicle 1.43125e-014 7.31528e-014
lhumerus -13.7494 2.94593 54.0939
lradius 49.0592
lwrist -13.9094
lhand -35.1342 -13.3815
lfingers 7.12502
lthumb -8.27431 16.4364
rfemur -31.3858 -10.8848 13.4964
rtibia 90.2175
rfoot 3.11733 21.1781
rtoes -16.0473
lfemur -11.6513 3.94734 -11.6775
ltibia 30.039
lfoot -8.78654 -7.05214
ltoes -4.90433
146
root -3.88626 19.3773 -1.43962 650.046 83.732 -66.9619
lowerback 1.76742 1.46559 -4.0188
upperback 10.7942 2.78434 -1.66769
thorax 10.4034 1.29714 0.690385
lowerneck 4.52469 -2.34222 -3.00445
upperneck 20.2594 -3.08609 4.56632
head 5.48148 -1.16364 1.8707
rclavicle 4.77083e-015 9.54166e-015
rhumerus -30.8315 -19.8044 -80.1568
rradius 33.3637
rwrist 6.09071
rhand -10.3218 16.101
rfingers 7.12502
rthumb 15.6737 -13.2842
lclavicle 4.77083e-015 9.54166e-015
lhumerus -13.2256 3.0969 54.2217
lradius 49.1659
lwrist -13.7325
lhand -35.3345 -13.1917
lfingers 7.12502
lthumb -8.46756 16.6186
rfemur -32.307 -11.5231 13.6264
rtibia 91.3948
rfoot 2.54856 21.5345
rtoes -16.7899
lfemur -11.0571 3.66556 -11.491
ltibia 29.967
lfoot -8.96263 -6.97532
ltoes -4.81848
